<svg xmlns="http://www.w3.org/2000/svg" version="1.1" xmlns:xlink="http://www.w3.org/1999/xlink" xmlns:svgjs="http://svgjs.dev/svgjs" width="1000" height="1000" viewBox="0 0 1000 1000"><rect width="1000" height="1000" fill="#ffffff"></rect><g transform="matrix(0.7,0,0,0.7,149.57576152566952,348.8362371145123)"><svg viewBox="0 0 396 171" data-background-color="#ffffff" preserveAspectRatio="xMidYMid meet" height="431" width="1000" xmlns="http://www.w3.org/2000/svg" xmlns:xlink="http://www.w3.org/1999/xlink"><defs></defs><g id="tight-bounds" transform="matrix(1,0,0,1,0.24000157717469506,0.17785583657575899)"><svg viewBox="0 0 395.5199999999999 170.64430706226943" height="170.64430706226943" width="395.5199999999999"><g><svg viewBox="0 0 631.3608087646243 272.39615624472424" height="170.64430706226943" width="395.5199999999999"><g transform="matrix(1,0,0,1,235.8408087646243,101.51560342861062)"><svg viewBox="0 0 395.52 69.364949387503" height="69.364949387503" width="395.52"><g><svg viewBox="0 0 395.52 69.364949387503" height="69.364949387503" width="395.52"><g><svg viewBox="0 0 395.52 69.364949387503" height="69.364949387503" width="395.52"><g transform="matrix(1,0,0,1,0,0)"><svg width="395.52" viewBox="5 -39.54999923706055 230.06187438964844 40.349998474121094" height="69.364949387503" data-palette-color="#1c64f2"><path d="M6.95 0L6.95 0Q6.15 0 5.58-0.58 5-1.15 5-1.95L5-1.95 5-37.1Q5-37.95 5.58-38.5 6.15-39.05 6.95-39.05L6.95-39.05Q8.15-39.05 8.7-38.05L8.7-38.05 25.55-4.55 23.85-4.55 40.4-38.05Q41-39.05 42.15-39.05L42.15-39.05Q42.95-39.05 43.5-38.5 44.05-37.95 44.05-37.1L44.05-37.1 44.05-1.95Q44.05-1.15 43.5-0.58 42.95 0 42.15 0L42.15 0Q41.3 0 40.73-0.58 40.15-1.15 40.15-1.95L40.15-1.95 40.15-32.05 41-32 26.25-1.85Q25.7-0.9 24.55-0.9L24.55-0.9Q23.3-0.9 22.75-2.1L22.75-2.1 7.9-31.8 8.9-32.05 8.9-1.95Q8.9-1.15 8.33-0.58 7.75 0 6.95 0ZM69.6 0.8L69.6 0.8Q65.05 0.8 61.52-0.95 58-2.7 56.02-5.8 54.05-8.9 54.05-12.9L54.05-12.9 54.05-37.1Q54.05-37.95 54.6-38.5 55.15-39.05 56-39.05L56-39.05Q56.85-39.05 57.4-38.5 57.95-37.95 57.95-37.1L57.95-37.1 57.95-12.9Q57.95-9.95 59.42-7.7 60.9-5.45 63.55-4.17 66.2-2.9 69.6-2.9L69.6-2.9Q72.95-2.9 75.55-4.17 78.15-5.45 79.62-7.7 81.1-9.95 81.1-12.9L81.1-12.9 81.1-37.1Q81.1-37.95 81.65-38.5 82.2-39.05 83.05-39.05L83.05-39.05Q83.95-39.05 84.47-38.5 85-37.95 85-37.1L85-37.1 85-12.9Q85-8.9 83.02-5.8 81.05-2.7 77.57-0.95 74.1 0.8 69.6 0.8ZM107 0.5L107 0.5Q103.8 0.5 101.07-0.43 98.34-1.35 96.34-3.05 94.34-4.75 93.3-7L93.3-7Q92.9-7.8 93.27-8.47 93.65-9.15 94.55-9.4L94.55-9.4Q95.25-9.6 95.92-9.25 96.59-8.9 96.95-8.2L96.95-8.2Q97.7-6.75 99.15-5.6 100.59-4.45 102.59-3.83 104.59-3.2 107-3.2L107-3.2Q109.65-3.2 111.7-4.08 113.75-4.95 114.92-6.63 116.09-8.3 116.09-10.7L116.09-10.7Q116.09-13.75 113.84-15.95 111.59-18.15 106.8-18.75L106.8-18.75Q100.95-19.45 97.65-22.38 94.34-25.3 94.34-29.55L94.34-29.55Q94.34-32.6 95.97-34.85 97.59-37.1 100.45-38.33 103.3-39.55 107-39.55L107-39.55Q109.75-39.55 112-38.68 114.25-37.8 115.92-36.38 117.59-34.95 118.65-33.25L118.65-33.25Q119.15-32.45 118.97-31.7 118.8-30.95 118.09-30.55L118.09-30.55Q117.34-30.2 116.57-30.45 115.8-30.7 115.4-31.4L115.4-31.4Q114.65-32.55 113.52-33.58 112.4-34.6 110.8-35.2 109.2-35.8 106.95-35.85L106.95-35.85Q103-35.85 100.59-34.18 98.2-32.5 98.2-29.3L98.2-29.3Q98.2-27.6 99.09-26.18 100-24.75 102.07-23.73 104.15-22.7 107.65-22.2L107.65-22.2Q113.9-21.3 116.92-18.38 119.95-15.45 119.95-10.75L119.95-10.75Q119.95-8.05 118.97-5.95 118-3.85 116.22-2.43 114.45-1 112.07-0.25 109.7 0.5 107 0.5ZM130.04 0L130.04 0Q129.19 0 128.64-0.55 128.09-1.1 128.09-1.95L128.09-1.95 128.09-37.1Q128.09-37.95 128.64-38.5 129.19-39.05 130.04-39.05L130.04-39.05Q130.89-39.05 131.44-38.5 131.99-37.95 131.99-37.1L131.99-37.1 131.99-1.95Q131.99-1.1 131.44-0.55 130.89 0 130.04 0ZM159.54 0.5L159.54 0.5Q155.49 0.5 151.97-1.05 148.44-2.6 145.77-5.38 143.09-8.15 141.59-11.78 140.09-15.4 140.09-19.55L140.09-19.55Q140.09-23.65 141.56-27.28 143.04-30.9 145.72-33.65 148.39-36.4 151.92-37.98 155.44-39.55 159.54-39.55L159.54-39.55Q163.14-39.55 166.09-38.5 169.04-37.45 171.79-35.15L171.79-35.15Q172.24-34.8 172.31-34.33 172.39-33.85 172.19-33.43 171.99-33 171.59-32.8L171.59-32.8Q171.49-32.4 171.09-32.2 170.69-32 170.17-32.05 169.64-32.1 169.14-32.5L169.14-32.5Q167.19-34.2 164.89-35.02 162.59-35.85 159.54-35.85L159.54-35.85Q156.29-35.85 153.47-34.55 150.64-33.25 148.49-31 146.34-28.75 145.12-25.8 143.89-22.85 143.89-19.55L143.89-19.55Q143.89-16.15 145.12-13.2 146.34-10.25 148.49-8 150.64-5.75 153.47-4.48 156.29-3.2 159.54-3.2L159.54-3.2Q162.29-3.2 164.74-4.1 167.19-5 169.39-6.7L169.39-6.7Q169.99-7.2 170.67-7.1 171.34-7 171.84-6.5 172.34-6 172.34-5.2L172.34-5.2Q172.34-4.8 172.22-4.48 172.09-4.15 171.79-3.8L171.79-3.8Q169.24-1.45 166.09-0.48 162.94 0.5 159.54 0.5ZM200.29 0L181.04 0Q180.24 0 179.66-0.55 179.09-1.1 179.09-1.95L179.09-1.95Q179.09-2.7 179.64-3.3L179.64-3.3 194.79-21.2Q196.04-22.55 196.79-24.23 197.54-25.9 197.54-27.35L197.54-27.35Q197.54-29.7 196.61-31.5 195.69-33.3 194.01-34.33 192.34-35.35 190.19-35.35L190.19-35.35Q188.09-35.35 186.36-34.27 184.64-33.2 183.66-31.4 182.69-29.6 182.69-27.35L182.69-27.35Q182.69-26.55 182.14-26 181.59-25.45 180.74-25.45L180.74-25.45Q179.94-25.45 179.36-26 178.79-26.55 178.79-27.35L178.79-27.35Q178.79-30.7 180.29-33.35 181.79-36 184.36-37.55 186.94-39.1 190.19-39.1L190.19-39.1Q193.44-39.1 195.96-37.6 198.49-36.1 199.91-33.45 201.34-30.8 201.34-27.35L201.34-27.35Q201.34-25.7 200.81-24.2 200.29-22.7 199.39-21.33 198.49-19.95 197.44-18.75L197.44-18.75 184.64-3.9 200.29-3.9Q201.09-3.9 201.66-3.3 202.24-2.7 202.24-1.95L202.24-1.95Q202.24-1.1 201.66-0.55 201.09 0 200.29 0L200.29 0ZM211.54 0L211.54 0Q210.74 0 210.16-0.58 209.59-1.15 209.59-1.95L209.59-1.95 209.59-37.1Q209.59-37.9 210.16-38.48 210.74-39.05 211.54-39.05L211.54-39.05Q212.34-39.05 212.91-38.48 213.49-37.9 213.49-37.1L213.49-37.1 213.49-20.1 231.74-38.35Q232.14-38.75 232.49-38.9 232.84-39.05 233.29-39.05L233.29-39.05Q234.19-39.05 234.64-38.5 235.09-37.95 235.06-37.18 235.04-36.4 234.44-35.7L234.44-35.7 220.74-22 234.59-3.1Q235.04-2.45 234.96-1.73 234.89-1 234.39-0.5 233.89 0 233.19 0L233.19 0Q232.09 0 231.54-0.85L231.54-0.85 217.94-19.25 213.49-14.75 213.49-1.95Q213.49-1.15 212.91-0.58 212.34 0 211.54 0Z" opacity="1" transform="matrix(1,0,0,1,0,0)" fill="#1c64f2" class="undefined-text-0" data-fill-palette-color="primary" id="text-0"></path></svg></g></svg></g></svg></g></svg></g><g><svg viewBox="0 0 219.46540897302015 272.39615624472424" height="272.39615624472424" width="219.46540897302015"><g><svg xmlns="http://www.w3.org/2000/svg" xmlns:xlink="http://www.w3.org/1999/xlink" version="1.1" x="0" y="0" viewBox="22.462501525878906 15.888545989990234 55.037498474121094 68.31146240234375" style="enable-background:new 0 0 100 100;" xml:space="preserve" height="272.39615624472424" width="219.46540897302015" class="icon-icon-0" data-fill-palette-color="accent" id="icon-0"><g fill="#1c64f2" data-fill-palette-color="accent"><path d="M76.5 46.7c0 0-0.7-6.9-1.8-10.4-1.6-4.9-7.5-20.9-18.5-20.4-8.5 2.5-11.5 6.2-14.9 11.1-3.7 5.4-5.5 16.4-5.8 18.6-0.6 3.9-0.5 9.6 2.9 14.5 3.8 5.5 6.2 10.3 6.9 14.3 0.3 1.6 0 3.4-0.3 4.8 0.5-1.1 0.7-2.5 0.7-4 0-5-3.6-10.4-6.2-14.3-0.6-0.8-1.1-1.6-1.5-2.3-2.6-4.2-2.3-10.7-2.3-11 0 0 0 0 0 0 0.1-2.8 1.2-7.9 2.2-11.3 1-3.7 2.2-6.3 4.2-9.3 1.4-2.1 5.3-6.9 10.4-5.4 9.4 2.7 13 13.2 13.8 16.3 1.6 5.7 1.5 13.5 1.4 15 0.9 0.7 4.4 3.4 6.1 7.3 1 2.3 2 4.9 2 7.8 0.1 3.8-0.7 6-2.9 8.7-3.4 4.1-6.6 6-8.8 6.9 10.1-0.7 13.4-9.8 13.4-13 0-3.2-1.1-8.5-1.1-8.6L76.5 46.7zM66.2 35.8c-0.2 0-0.4-0.1-0.5-0.3-0.4-1.2-1.2-2.5-1.2-2.5-0.1-0.2-0.1-0.3 0-0.5 0.1-0.2 0.3-0.3 0.4-0.3h7c0.2 0 0.3 0.1 0.4 0.2 0.5 0.6 1.1 2.5 1.2 2.7 0 0.2 0 0.3-0.1 0.4s-0.2 0.2-0.4 0.2H66.2zM74.5 48.4c-0.1 0.1-0.2 0.2-0.4 0.2h-5.4c-0.3 0-0.5-0.2-0.5-0.5-0.1-1.3-0.4-3.6-0.4-3.6 0-0.1 0-0.3 0.1-0.4 0.1-0.1 0.2-0.2 0.4-0.2h5.3c0.2 0 0.4 0.1 0.5 0.3 0.2 0.5 0.4 3 0.5 3.7C74.6 48.1 74.6 48.3 74.5 48.4z" fill="#1c64f2" data-fill-palette-color="accent"></path><path d="M36.7 50.2c1.6 0.7 9.4 4.3 13.7 14 1.4 3 2.2 5.5 2.6 7.7 0.8-8-1.3-12.4-1.3-12.5 0 0 0 0 0 0 0 0 0 0 0 0-3.5-7.7-12.1-11.1-15.1-11.2C36.7 48.6 36.7 49.3 36.7 50.2z" fill="#1c64f2" data-fill-palette-color="accent"></path><path d="M72.9 60.5c-1.8-4-5.6-6.7-5.9-7-3.2-1.6-8.6-0.9-14.2 5.7 0.6 1.3 2.5 6.9 0.7 16.5 0 0 0 0 0 0 0 1.6-0.2 3-0.7 4 0.3 0.5 1.3 2.2 2.7 2.7 0.8 0.3 7-0.7 10.1-3.4C69.8 75.6 74.5 71.5 72.9 60.5zM61.8 70.6c-1.8 2.7-3.3 4-4.6 4-0.2 0-0.4 0-0.5-0.1-1.7-0.5-1.8-3.4-1.8-4.6 0.3-8.1 5.1-11.1 7.2-12 1-0.4 2.1 0 2.5 0.9C65.7 61 65.1 65.8 61.8 70.6z" fill="#1c64f2" data-fill-palette-color="accent"></path><path d="M72.2 76.1c2.1-2.6 2.8-4.5 2.7-8.1 0-1.4-0.3-2.8-0.7-4.1 0.2 8.9-4.2 12.8-7.9 15.9-2.1 1.8-5.7 3-8.3 3.5 0.9 0.2 1.9 0.2 2.9 0 0 0 0 0 0 0 0 0 0 0 0.1 0 0 0 0 0 0 0h0C61.2 83.3 66.3 83.2 72.2 76.1z" fill="#1c64f2" data-fill-palette-color="accent"></path><path d="M36.8 51.3c0.2 2.1 0.8 4.8 2 6.8 0.4 0.7 0.9 1.4 1.5 2.3 2.7 4 6.4 9.5 6.4 14.8 0 4-1.6 6.7-3.8 8.2 1.7 0.3 4.6 0.4 6.8-1.1 2.2-1.6 5.2-6-0.2-17.8C45.7 56.1 39 52.4 36.8 51.3z" fill="#1c64f2" data-fill-palette-color="accent"></path><path d="M40.5 26.4c2.9-4.2 5.7-7.8 12.1-10.3-9.3 0.6-12.7 1.5-18.4 7.5-3.6 3.8-5.9 9.3-7.2 14l9.2-0.2C37.1 33.6 38.5 29.3 40.5 26.4z" fill="#1c64f2" data-fill-palette-color="accent"></path><path d="M44.3 74.6c-0.7-3.9-3-8.6-6.7-13.9C34 55.5 34 49.5 34.5 45.4c0.1-1 0.6-3.8 1.4-7l-9.2 0.2c-0.7 2.7-1.2 5.1-1.5 6.7-0.1 0.8-0.2 1.8-0.3 2.9-0.2 2.3-0.5 5.5-1.4 9.6-0.3 1.2-0.5 2.5-0.7 3.7-0.9 5.3 0 10.6 2.7 14.9 3.6 5.7 8.7 7.8 12 7.8 2 0 4-0.7 5.6-2C43.3 81.4 44.9 77.6 44.3 74.6zM41.3 80.9c-1.1 1-2.6 1.4-4.2 1.4-0.8 0-1.7-0.1-2.6-0.4-2.6-0.7-5.2-2.5-7.2-4.9-2.1-2.4-3.4-5.3-3.7-8-0.3-2.8 0.5-5.1 2.2-6.5 1.7-1.4 4.1-1.8 6.8-1.1 2.6 0.7 5.2 2.5 7.2 4.9 2.1 2.4 3.4 5.3 3.7 8C43.7 77.2 43 79.5 41.3 80.9z" fill="#1c64f2" data-fill-palette-color="accent"></path><path d="M39 67.1C39 67.1 39 67.1 39 67.1c-1.9-2.3-4.3-3.9-6.8-4.6-0.8-0.2-1.6-0.4-2.4-0.4-1.4 0-2.6 0.4-3.5 1.2-1.4 1.2-2.1 3.2-1.8 5.7 0.3 2.5 1.5 5.1 3.4 7.4 1.9 2.3 4.3 3.9 6.8 4.6 2.4 0.7 4.4 0.4 5.9-0.9 1.4-1.2 2.1-3.2 1.8-5.7C42.1 72 40.9 69.4 39 67.1z" fill="#1c64f2" data-fill-palette-color="accent"></path></g></svg></g></svg></g></svg></g></svg><rect width="395.5199999999999" height="170.64430706226943" fill="none" stroke="none" visibility="hidden"></rect></g></svg></g></svg>